<svg width="48" height="48" viewBox="0 0 48 48" fill="none" xmlns="http://www.w3.org/2000/svg">
  <circle cx="24" cy="24" r="20" fill="#25D366"/>
  <path d="M33 14C31 12 28 11 25 11C18 11 12 17 12 24C12 26 12.5 28 13.5 29.5L12 36L18.7 34.5C20.2 35.4 21.9 36 23.8 36C30.8 36 36.8 30 36.8 23C36.8 20 35.8 17 33.8 15L33 14Z" fill="#FFFFFF"/>
  <path d="M28 25C28 25 27 24 26 24C25 24 24 25 24 25C24 25 21 24 19 22C19 22 18 19 19 19C19 19 20 18 20 17C20 16 19 14 19 14C19 14 18 13 17 14C16 15 15 16 15 18C15 20 16 22 17 23C18 25 20 27 22 28C23 29 25 30 27 30C29 30 30 29 31 28C32 27 31 26 31 26C31 26 30 25 29 26C28 27 28 27 28 26C28 25 28 25 28 25Z" fill="#25D366"/>
</svg>
